<svg width="40" height="40" viewBox="0 0 40 40" fill="none" xmlns="http://www.w3.org/2000/svg">
<path fill-rule="evenodd" clip-rule="evenodd" d="M22.6056 2.33353C21.9226 2.95443 21.0379 7.42484 21.4104 8.38718C21.7985 9.38074 22.7764 8.83744 23.2731 7.37832C24.6701 3.32694 24.3286 0.78135 22.6056 2.33353ZM10.126 2.93897C9.62922 3.43575 11.3522 8.91488 12.2215 9.55139C13.7736 10.7 14.3944 9.36513 13.4166 6.94367C11.8799 3.09401 11.0262 2.03862 10.126 2.93897ZM33.3004 7.78159C32.3845 8.18532 29.0318 12.1123 29.0318 12.7797C29.0318 13.6179 30.0407 13.3076 31.2049 12.1123C34.5576 8.66634 35.4424 6.85032 33.3004 7.78159ZM6.64899 15.0152C6.88177 15.0152 8.6202 14.7359 7.75106 14.115C6.43167 13.1836 1.49555 10.4517 0.936791 10.9329C0.176311 11.5849 5.70211 15.0152 6.64899 15.0152ZM27.7745 16.6917C27.107 13.7269 22.4659 10.8399 19.2529 11.3986C11.0262 12.8267 7.71999 21.7208 13.4942 26.8741C13.9288 27.2622 13.9132 27.7589 13.4321 28.178C12.6561 28.8609 12.8733 30.3511 13.9288 31.4843C14.0219 31.5929 14.0684 31.7325 14.0684 31.8722C14.0684 32.012 13.991 32.1361 13.8667 32.2293C12.3145 33.3935 13.5718 35.0698 13.9597 35.4112C14.3169 35.7372 15.6673 35.7528 17.2505 35.8615L17.4678 36.3581C18.0887 37.8327 20.6499 38.6865 21.519 37.7085C22.1245 37.0255 22.6678 36.2029 22.6678 35.9701C22.6678 35.7528 22.854 35.7217 23.8318 35.7217C26.0516 35.7217 26.9674 34.0298 25.6013 32.4777C25.1512 31.9654 25.3376 31.3445 25.648 31.3445C26.9985 31.3445 27.0604 29.9786 25.8653 28.5816C25.2755 27.8831 25.3376 27.6813 26.5173 26.4395C29.0163 23.8007 29.4975 18.7095 27.2158 19.1286C25.0271 19.5321 27.8832 20.3393 23.9561 26.4705L23.4283 27.2932C23.3041 27.4796 23.1023 27.5882 22.885 27.5726L22.4505 27.5415C21.4571 27.4796 21.3484 27.1225 22.0469 26.1135C22.3107 25.741 22.5281 25.3841 22.5281 25.3219C22.5281 25.2754 22.7298 24.9649 22.9938 24.6545C23.4749 24.0491 23.9872 22.8229 23.8474 22.5901C23.5215 22.0623 22.3883 22.5745 22.3883 23.2575C22.3883 23.5058 22.2021 23.8939 21.9382 24.1888C21.0689 25.1977 21.038 25.6169 20.774 27.169C20.7614 27.2748 20.6781 27.3582 20.5723 27.3709C19.5478 27.5261 19.3926 27.5572 19.2218 27.5726C18.8028 27.6037 18.8028 27.4329 18.7407 26.7655C18.6785 26.067 17.8094 24.5303 17.1885 24.018C17.0488 23.9094 16.9401 23.6611 16.9401 23.4749C16.9245 22.4193 15.807 22.2796 15.7294 23.3351C15.6829 23.925 15.7605 24.0801 16.5365 24.996C18.1508 26.8897 18.2906 27.5726 17.0953 27.5726C16.5209 27.5726 16.3192 27.5105 16.3192 27.3553C16.3192 27.2312 16.1019 26.9828 15.8535 26.7965C13.2614 24.9494 11.6782 18.9888 13.0285 16.2105C15.4034 11.383 22.823 11.29 24.9028 15.4033C25.8653 17.3591 28.1471 18.3681 27.7745 16.6917ZM19.1443 18.725C18.8493 18.9112 18.601 18.9734 18.5544 18.8803C18.3836 18.6163 17.6075 18.725 17.1729 19.0666C16.0243 19.9668 15.5121 21.3327 16.1795 21.6898C16.5365 21.876 16.8469 21.6587 16.9866 21.3172C17.1729 20.8671 17.1729 20.6342 17.3281 20.0755C17.3902 19.8581 17.98 19.3459 18.0733 20.1065C18.1042 20.4325 18.0887 20.9602 18.0887 21.5346C18.0887 22.4969 18.1043 23.0867 18.1819 23.4438C18.2439 23.7542 18.5388 23.9715 18.8648 23.9404C19.1908 23.9094 19.4236 23.63 19.4236 23.3041L19.3925 22.1088C19.3616 20.2617 19.2218 19.377 19.8738 19.3459C20.0445 19.3459 20.2153 19.3615 20.2463 21.5656C20.2774 23.2265 20.3394 23.8474 20.9759 23.8474C21.4725 23.8474 21.6122 23.4438 21.6122 22.0312C21.6122 21.3948 21.5501 20.4325 21.5812 19.9357C21.6122 19.4546 21.9382 19.3148 22.2177 19.408C22.6211 19.5632 22.7143 20.3549 22.5281 20.7739C22.2953 21.2862 22.4039 21.7208 23.149 21.5967C23.8009 21.488 23.9872 21.224 23.7233 20.805C23.6147 20.6342 23.4749 20.2773 23.4128 20.0289C23.149 18.9269 22.2797 18.4457 21.3638 18.8958C20.9759 19.082 20.8983 19.082 20.6964 18.8337C20.2774 18.4457 19.703 18.3836 19.1443 18.725ZM32.9278 21.6898C31.0032 22.1399 31.8878 22.7764 34.4489 22.7764C35.5199 22.7764 36.9636 22.8229 37.6465 22.8694C38.9815 22.9781 39.9282 22.6056 39.4936 22.1555C39.0435 21.7052 34.3094 21.3638 32.9278 21.6898ZM5.67104 23.3662C2.17858 23.8784 -0.786179 25.1977 0.874801 25.5237C2.58216 25.8496 7.22337 24.1734 6.74205 23.4127C6.66445 23.2419 6.50926 23.2419 5.67104 23.3662ZM23.925 31.1737C23.506 31.8568 23.5059 31.8568 24.0648 32.431C24.7633 33.1605 24.7011 33.5797 23.8785 33.7193C20.2463 34.3091 17.0798 34.3869 15.7605 34.0142C14.7825 33.7504 14.9688 32.8967 15.5897 32.6329C15.838 32.5242 15.9932 31.7636 15.4345 31.4221C14.7049 30.9875 14.8757 30.289 16.0708 30.1338C17.1885 29.9786 19.5013 29.9786 23.9561 29.9319C24.2356 29.9319 24.4217 30.2269 24.3132 30.4752C24.22 30.6615 24.0958 30.8788 23.925 31.1737ZM21.7364 35.8925C21.3017 36.7306 20.5878 37.0255 20.029 37.0101C18.8493 36.979 18.5544 36.0788 18.8028 35.9391C18.8183 35.9234 21.783 35.7993 21.7364 35.8925Z" fill="black"/>
</svg>
