<svg width="44" height="59" viewBox="0 0 44 59" fill="none" xmlns="http://www.w3.org/2000/svg">
<path d="M18.1362 55.3674C17.2045 54.6259 16.1247 54.0925 14.9695 53.8031C31.1611 54.2991 40.5694 41.0666 36.4623 25.6014C32.6884 12.2211 19.5633 3.26097 6.6051 0.0475925C6.557 0.0362648 6.50708 0.0350535 6.4585 0.0440352C6.40991 0.0530169 6.36371 0.0719926 6.32284 0.0997652C6.28198 0.127538 6.24733 0.163495 6.22109 0.205364C6.19485 0.247233 6.1776 0.294101 6.17043 0.342989C6.1579 0.426228 6.17502 0.511225 6.2188 0.583121C6.26258 0.655016 6.33023 0.709239 6.40994 0.73632C18.328 4.77044 30.4376 13.6007 33.4314 26.2998C35.7911 39.8358 27.7314 49.6882 14.7857 52.8194C15.929 51.4496 16.7718 49.855 17.2595 48.1387C17.269 48.1064 17.2671 48.0718 17.254 48.0408C17.2409 48.0097 17.2175 47.9842 17.1878 47.9685C17.158 47.9527 17.1237 47.9477 17.0907 47.9544C17.0577 47.961 17.028 47.9789 17.0067 48.0049C15.5 49.7678 14.0816 51.4312 12.0206 53.0679C10.7751 54.0541 10.3295 54.4858 12.1636 54.6951C14.3911 54.9493 16.8327 55.228 18.7274 56.5189C18.7665 56.5421 18.8123 56.5512 18.8572 56.5448C18.9022 56.5383 18.9436 56.5167 18.9746 56.4835C19.0056 56.4503 19.0243 56.4076 19.0277 56.3623C19.031 56.317 19.0188 56.2719 18.993 56.2345C18.7434 55.9121 18.4557 55.6209 18.1362 55.3674Z" fill="#231F20"/>
<path d="M31.4163 9.30201C37.6408 13.3437 42.2105 20.9357 40.93 28.4171C40.9214 28.4552 40.8994 28.4889 40.8681 28.5123C40.8368 28.5357 40.7982 28.5471 40.7593 28.5446C40.7203 28.5422 40.6835 28.5259 40.6554 28.4987C40.6273 28.4716 40.6098 28.4353 40.606 28.3964C40.1487 21.1293 36.1592 14.7644 31.2089 9.54643C31.1835 9.51718 31.1694 9.47979 31.1691 9.44103C31.1689 9.40227 31.1826 9.36471 31.2076 9.33515C31.2327 9.3056 31.2676 9.28601 31.3058 9.27993C31.3441 9.27385 31.3833 9.28168 31.4163 9.30201Z" fill="#231F20"/>
<path d="M28.9322 7.76887C28.0296 7.46147 27.2342 6.90141 26.6406 6.15525C26.618 6.12817 26.6036 6.09511 26.5993 6.06005C26.595 6.025 26.6009 5.98945 26.6164 5.9577C26.6318 5.92594 26.6562 5.89934 26.6864 5.8811C26.7166 5.86286 26.7515 5.85375 26.7868 5.85488C27.2941 5.90082 27.7803 6.07924 28.1969 6.37226C28.6135 6.66529 28.9458 7.06264 29.1605 7.52451C29.1744 7.5571 29.1784 7.593 29.1723 7.62786C29.1661 7.66273 29.1499 7.69505 29.1258 7.72092C29.1016 7.74678 29.0704 7.76509 29.0361 7.7736C29.0017 7.78211 28.9656 7.78046 28.9322 7.76887Z" fill="#231F20"/>
</svg>
