<svg width="45" height="45" viewBox="0 0 45 45" fill="none" xmlns="http://www.w3.org/2000/svg">
<g clip-path="url(#clip0_526_764)">
<path d="M40.2306 12.3717C39.3904 12.3131 30.7433 12.1503 25.9417 10.4486C25.191 10.1826 24.6856 11.0238 25.0541 11.6486C25.5697 12.5329 26.3651 13.7075 27.1033 14.6387L27.6883 15.3722C21.9612 17.1369 23.4052 16.9313 10.7115 21.6637C1.52621 25.0886 2.34769 24.1202 4.60814 28.7635C5.61904 30.8596 6.44025 32.6811 6.43254 32.8378C6.41122 33.2129 7.35378 34.647 9.72342 33.4939C20.9326 28.0919 27.9878 25.4588 30.7139 23.3001C30.733 23.2909 34.0786 28.1114 34.0877 28.1306C34.0969 28.1498 35.168 30.0758 36.9837 26.0321C37.7227 24.3967 43.0839 14.3076 43.2866 14.1403C44.2589 13.2413 43.0695 12.5488 40.2306 12.3717ZM5.52494 26.2665C5.46182 26.0847 5.81717 25.8918 7.12399 25.3984C9.12968 24.6424 9.03729 24.4982 8.37097 27.3231C8.07177 28.5723 7.81094 29.8031 7.76811 30.0589C7.71756 30.4715 6.01337 27.5875 5.52494 26.2665ZM10.5075 30.4717C9.00523 31.2467 9.03361 31.2566 9.27168 30.2249C9.5827 28.8525 10.3821 24.2574 10.5607 24.1134C10.7201 23.9786 13.342 23.0584 13.6005 22.9587C12.1473 27.6889 12.1899 27.7039 11.727 29.8197L10.5075 30.4717ZM14.5909 28.6665C13.7811 29.0172 13.0772 29.2938 13.0347 29.2787C12.7748 29.2025 14.9581 22.5469 14.9631 22.5327L16.3759 21.9654C18.1381 21.2666 18.1289 21.2474 17.637 22.6355C17.1601 23.9811 16.455 26.6007 16.0764 28.029L14.5909 28.6665ZM17.6594 27.2508C18.5217 24.3678 18.5686 24.1454 19.7902 20.6086C20.5274 20.3278 22.2513 19.6473 22.3788 19.6925C22.5346 19.7477 20.6594 24.6791 20.6259 25.4484C20.59 26.0894 20.6494 25.9668 17.6594 27.2508ZM24.2158 24.361C22.0046 25.4267 22.5145 25.6076 23.8029 20.0378C24.082 18.8453 23.966 18.9477 25.7465 18.2873L27.2493 17.7357L25.6929 23.657L24.2158 24.361ZM28.7461 21.7896C28.3757 22.025 28.0789 22.1429 28.0706 22.0762C28.0892 21.8436 28.9346 17.8386 28.9176 17.4819C28.9185 17.4343 29.0436 17.3512 29.2163 17.2688C29.8594 16.9388 30.1679 16.2031 29.9479 15.5193C29.8889 15.3709 28.8497 14.5243 27.844 12.9084C27.6918 12.6631 27.5963 12.438 27.6346 12.4197C27.8265 12.3282 31.7529 13.3052 31.7671 13.3102C31.4159 14.796 30.6268 17.8325 30.4014 18.6933C29.7423 21.1381 29.5011 21.3238 28.7461 21.7896ZM31.9403 21.7737L31.4134 21.2362L32.067 18.5822C32.9678 14.9157 33.1313 13.5547 33.2322 13.4948C33.2948 13.4532 34.9824 13.6846 35.3799 13.7777C35.6024 13.8246 35.2765 14.4744 33.7971 18.8287C32.4693 22.7104 32.6163 22.4755 31.9403 21.7737ZM35.4011 23.2551C34.5836 25.022 34.3981 25.2753 34.1726 25.6418C33.6419 24.8001 33.5794 24.8415 33.9602 24.3069C34.8194 23.0968 36.8145 15.0831 37.222 13.8883C39.0183 13.9031 40.8105 13.8846 40.7151 14.1537C40.705 14.182 36.848 20.117 35.4011 23.2551Z" fill="black"/>
</g>
<defs>
<clipPath id="clip0_526_764">
<rect width="35" height="35" fill="white" transform="translate(11.6914) rotate(19.514)"/>
</clipPath>
</defs>
</svg>
